<?xml version="1.0" standalone="no"?>
<!DOCTYPE svg PUBLIC "-//W3C//DTD SVG 20010904//EN"
 "http://www.w3.org/TR/2001/REC-SVG-20010904/DTD/svg10.dtd">
<svg version="1.0" xmlns="http://www.w3.org/2000/svg"
 width="383.000000pt" height="313.000000pt" viewBox="0 0 383.000000 313.000000"
 preserveAspectRatio="xMidYMid meet">

<g transform="translate(0.000000,313.000000) scale(0.100000,-0.100000)"
fill="#000000" stroke="none">
<path d="M1600 2497 c0 -7 18 -61 40 -119 75 -198 83 -321 38 -542 -32 -156
-25 -201 57 -363 50 -101 73 -137 92 -144 60 -23 55 19 -22 175 -73 147 -83
199 -65 313 21 125 19 319 -4 413 -30 124 -136 331 -136 267z"/>
<path d="M2191 2497 c-21 -26 -90 -186 -105 -245 -9 -33 -21 -105 -26 -160 -9
-86 -8 -119 10 -230 25 -163 20 -191 -61 -361 -57 -119 -73 -181 -46 -181 32
0 63 41 122 161 80 161 86 199 55 341 -30 135 -37 291 -17 384 8 39 34 119 56
179 23 60 41 112 41 117 0 12 -16 10 -29 -5z"/>
<path d="M870 2349 c0 -7 19 -31 43 -54 134 -128 380 -231 534 -223 66 3 78 7
98 30 26 30 40 100 25 128 -23 42 -60 11 -60 -49 0 -69 -94 -78 -263 -24 -104
32 -184 72 -267 133 -83 60 -110 75 -110 59z"/>
<path d="M2859 2307 c-41 -30 -95 -66 -120 -81 -114 -65 -323 -119 -390 -100
-31 9 -35 14 -45 64 -7 40 -15 56 -28 58 -35 7 -45 -39 -25 -111 15 -54 57
-71 164 -65 62 4 104 14 190 47 60 23 134 56 163 74 57 34 182 143 182 158 0
17 -18 9 -91 -44z"/>
<path d="M780 2290 c0 -45 73 -118 209 -210 134 -89 227 -131 307 -138 64 -5
66 -4 56 15 -17 30 -31 38 -107 58 -136 36 -319 147 -419 254 -31 32 -46 39
-46 21z"/>
<path d="M2970 2248 c-90 -82 -150 -124 -245 -171 -89 -44 -119 -55 -202 -77
-45 -11 -76 -46 -54 -60 18 -11 116 8 174 34 109 48 317 192 360 249 58 78 40
92 -33 25z"/>
<path d="M720 2204 c0 -56 153 -211 288 -292 62 -38 207 -90 219 -79 16 16
-17 43 -113 92 -138 71 -215 125 -311 218 -61 59 -83 75 -83 61z"/>
<path d="M3015 2145 c-78 -80 -194 -160 -332 -229 -63 -31 -92 -52 -96 -67 -5
-19 -3 -20 30 -14 112 21 247 101 372 220 71 68 111 123 111 154 0 20 -14 9
-85 -64z"/>
<path d="M731 2034 c5 -15 24 -45 41 -67 44 -55 195 -179 252 -206 47 -23 126
-40 126 -27 0 26 -32 52 -113 92 -106 53 -218 135 -265 193 -38 47 -56 54 -41
15z"/>
<path d="M3030 2004 c-71 -72 -154 -131 -257 -183 -45 -22 -89 -51 -98 -63
-15 -22 -14 -23 7 -26 35 -6 98 17 158 57 68 44 217 185 237 224 26 52 9 48
-47 -9z"/>
<path d="M845 1801 c23 -66 49 -102 125 -175 76 -72 111 -92 230 -136 126 -47
177 -76 206 -120 27 -40 62 -59 84 -45 20 12 2 67 -33 103 -41 43 -81 63 -238
122 -70 26 -150 61 -177 79 -48 31 -129 111 -184 181 l-28 35 15 -44z"/>
<path d="M2927 1774 c-81 -109 -173 -169 -353 -233 -173 -62 -254 -123 -254
-192 0 -47 40 -39 85 16 48 58 82 78 211 125 123 44 193 89 266 169 48 52 104
151 96 170 -2 5 -24 -20 -51 -55z"/>
<path d="M260 1115 c0 -8 9 -15 20 -15 19 0 20 -7 20 -165 0 -158 -1 -165 -20
-165 -11 0 -20 -7 -20 -15 0 -12 14 -15 70 -15 56 0 70 3 70 15 0 8 -6 15 -14
15 -20 0 -30 117 -21 236 5 71 10 94 21 94 8 0 14 7 14 15 0 12 -14 15 -70 15
-56 0 -70 -3 -70 -15z"/>
<path d="M440 1116 c0 -7 9 -16 20 -19 19 -5 20 -14 20 -156 0 -139 -2 -153
-20 -168 -31 -26 -25 -33 30 -33 50 0 64 11 34 28 -14 8 -18 32 -22 138 -4
108 -2 127 9 116 8 -7 55 -72 104 -145 64 -92 98 -133 113 -135 22 -3 22 -3
22 177 0 174 1 181 20 181 11 0 20 7 20 15 0 12 -13 15 -55 15 -42 0 -55 -3
-55 -15 0 -8 9 -15 20 -15 19 0 20 -7 20 -120 0 -66 -2 -120 -5 -120 -2 0 -45
61 -95 135 l-90 135 -45 0 c-32 0 -45 -4 -45 -14z"/>
<path d="M820 1115 c0 -8 6 -15 14 -15 23 0 26 -24 26 -178 0 -124 -3 -148
-17 -165 -18 -19 -16 -19 88 -15 95 3 110 6 146 30 56 37 83 96 83 182 0 141
-45 175 -227 176 -94 0 -113 -3 -113 -15z m209 -28 c43 -21 65 -73 65 -146 -1
-90 -29 -146 -82 -162 -21 -6 -49 -9 -62 -7 l-25 3 -3 150 c-1 82 0 155 2 162
7 17 73 17 105 0z"/>
<path d="M1210 1116 c0 -7 9 -16 20 -19 19 -5 20 -14 20 -166 0 -154 -1 -161
-20 -161 -11 0 -20 -7 -20 -15 0 -12 14 -15 70 -15 53 0 70 3 70 14 0 7 -9 16
-20 19 -19 5 -20 14 -20 150 0 153 4 177 26 177 8 0 14 7 14 15 0 12 -14 15
-70 15 -53 0 -70 -3 -70 -14z"/>
<path d="M1525 1118 c-3 -7 -30 -87 -59 -177 -31 -92 -62 -168 -70 -173 -30
-17 -16 -28 34 -28 51 0 64 11 33 29 -14 7 -15 15 -8 48 l10 38 58 3 c52 3 58
1 66 -20 22 -60 22 -66 1 -73 -42 -13 -17 -25 55 -25 48 0 75 4 75 11 0 6 -8
13 -18 16 -12 3 -30 41 -61 131 -74 213 -82 232 -97 232 -8 0 -17 -6 -19 -12z
m21 -150 c9 -29 19 -59 22 -65 3 -9 -9 -13 -42 -13 -25 0 -46 1 -46 3 0 7 32
112 37 120 8 13 11 8 29 -45z"/>
<path d="M1740 1119 c0 -6 9 -13 19 -16 16 -4 20 -18 26 -90 4 -46 4 -120 0
-163 -6 -65 -10 -79 -26 -83 -40 -11 -18 -27 36 -27 58 0 68 9 35 31 -19 13
-21 23 -18 139 l3 125 100 -147 c80 -118 105 -148 123 -148 19 0 23 5 22 28
-1 15 -2 95 -1 178 1 143 2 152 21 157 41 11 20 27 -35 27 -42 0 -55 -3 -55
-15 0 -8 9 -15 20 -15 19 0 20 -7 20 -121 0 -102 -2 -120 -14 -110 -7 6 -51
67 -96 136 l-83 125 -48 0 c-29 0 -49 -5 -49 -11z"/>
<path d="M2215 958 c-36 -111 -64 -178 -76 -187 -32 -22 -22 -31 36 -31 55 0
73 13 35 25 -23 7 -25 19 -9 64 11 30 13 31 68 31 l58 0 12 -42 c11 -36 11
-42 -3 -50 -33 -18 -14 -28 54 -28 69 0 87 10 53 28 -10 6 -42 80 -78 183 -41
118 -66 175 -77 177 -13 2 -28 -34 -73 -170z m80 -6 c9 -29 15 -56 12 -58 -3
-3 -23 -4 -44 -2 l-39 3 19 64 c10 35 22 60 27 55 4 -5 15 -33 25 -62z"/>
<path d="M2590 1120 c0 -7 8 -14 19 -17 15 -4 19 -18 24 -94 8 -103 -1 -238
-16 -258 -9 -11 4 -13 82 -10 90 4 94 5 121 36 53 59 48 144 -10 166 l-29 11
32 27 c26 22 32 34 32 68 0 66 -17 75 -145 79 -80 3 -110 1 -110 -8z m174 -36
c35 -34 7 -114 -40 -114 -23 0 -24 3 -24 65 0 62 1 65 24 65 14 0 32 -7 40
-16z m6 -166 c22 -24 27 -77 9 -111 -15 -28 -28 -37 -56 -37 -22 0 -23 3 -23
85 0 84 0 85 25 85 13 0 33 -10 45 -22z"/>
<path d="M2985 950 c-32 -98 -64 -181 -72 -184 -30 -12 -10 -26 37 -26 51 0
67 13 30 25 -14 4 -19 13 -16 23 3 9 8 30 12 45 6 27 8 28 68 25 l61 -3 10
-39 c7 -32 6 -40 -8 -51 -29 -21 -20 -25 53 -25 56 0 70 3 70 15 0 8 -6 15
-14 15 -14 0 -25 27 -97 238 -31 91 -46 122 -58 122 -13 0 -30 -41 -76 -180z
m78 20 c9 -25 18 -53 22 -62 6 -16 1 -18 -39 -18 -25 0 -46 4 -46 9 0 7 15 54
35 110 7 18 10 14 28 -39z"/>
<path d="M3260 1119 c0 -6 9 -13 20 -16 19 -5 20 -14 20 -169 0 -157 -1 -164
-20 -164 -11 0 -20 -7 -20 -15 0 -12 14 -15 70 -15 56 0 70 3 70 15 0 8 -6 15
-14 15 -17 0 -28 140 -19 251 6 74 7 79 29 79 73 0 84 -132 13 -147 -16 -3
-29 -7 -29 -9 0 -3 10 -21 23 -42 12 -20 36 -65 52 -99 l29 -63 43 0 c49 0 53
8 21 44 -13 13 -39 54 -58 91 l-35 66 21 17 c52 41 60 118 18 151 -23 18 -41
21 -130 21 -69 0 -104 -4 -104 -11z"/>
<path d="M240 670 c0 -20 7 -20 1670 -20 1663 0 1670 0 1670 20 0 20 -7 20
-1670 20 -1663 0 -1670 0 -1670 -20z"/>
<path d="M2969 313 c-13 -16 -12 -17 4 -4 9 7 17 15 17 17 0 8 -8 3 -21 -13z"/>
</g>
</svg>
